<mxfile host="app.diagrams.net" modified="2023-03-17T21:09:31.367Z" agent="5.0 (Windows NT 10.0; Win64; x64) AppleWebKit/537.36 (KHTML, like Gecko) Chrome/109.0.0.0 Safari/537.36 OPR/95.0.0.0" etag="cotpwH1bo6MOqyO1T1pe" version="21.0.7" type="github">
  <diagram id="C5RBs43oDa-KdzZeNtuy" name="Page-1">
    <mxGraphModel dx="1702" dy="878" grid="1" gridSize="10" guides="1" tooltips="1" connect="1" arrows="1" fold="1" page="1" pageScale="1" pageWidth="827" pageHeight="1169" math="0" shadow="0">
      <root>
        <mxCell id="WIyWlLk6GJQsqaUBKTNV-0" />
        <mxCell id="WIyWlLk6GJQsqaUBKTNV-1" parent="WIyWlLk6GJQsqaUBKTNV-0" />
        <mxCell id="PF6JFG3gqLruDpnbIKLe-26" value="" style="edgeStyle=orthogonalEdgeStyle;rounded=0;orthogonalLoop=1;jettySize=auto;html=1;" edge="1" parent="WIyWlLk6GJQsqaUBKTNV-1" source="PF6JFG3gqLruDpnbIKLe-24" target="PF6JFG3gqLruDpnbIKLe-25">
          <mxGeometry relative="1" as="geometry" />
        </mxCell>
        <mxCell id="PF6JFG3gqLruDpnbIKLe-24" value="Start" style="strokeWidth=2;html=1;shape=mxgraph.flowchart.start_1;whiteSpace=wrap;" vertex="1" parent="WIyWlLk6GJQsqaUBKTNV-1">
          <mxGeometry x="384" y="10" width="60" height="30" as="geometry" />
        </mxCell>
        <mxCell id="PF6JFG3gqLruDpnbIKLe-28" value="" style="edgeStyle=orthogonalEdgeStyle;rounded=0;orthogonalLoop=1;jettySize=auto;html=1;" edge="1" parent="WIyWlLk6GJQsqaUBKTNV-1" source="PF6JFG3gqLruDpnbIKLe-25" target="PF6JFG3gqLruDpnbIKLe-27">
          <mxGeometry relative="1" as="geometry" />
        </mxCell>
        <mxCell id="PF6JFG3gqLruDpnbIKLe-25" value="&lt;font size=&quot;1&quot;&gt;Select mode&lt;/font&gt;" style="whiteSpace=wrap;html=1;strokeWidth=2;" vertex="1" parent="WIyWlLk6GJQsqaUBKTNV-1">
          <mxGeometry x="379" y="60" width="70" height="20" as="geometry" />
        </mxCell>
        <mxCell id="PF6JFG3gqLruDpnbIKLe-44" value="" style="edgeStyle=orthogonalEdgeStyle;rounded=0;orthogonalLoop=1;jettySize=auto;html=1;exitX=0;exitY=0;exitDx=0;exitDy=0;entryX=0.5;entryY=0;entryDx=0;entryDy=0;" edge="1" parent="WIyWlLk6GJQsqaUBKTNV-1" source="PF6JFG3gqLruDpnbIKLe-27" target="PF6JFG3gqLruDpnbIKLe-43">
          <mxGeometry relative="1" as="geometry" />
        </mxCell>
        <mxCell id="PF6JFG3gqLruDpnbIKLe-49" style="edgeStyle=orthogonalEdgeStyle;rounded=0;orthogonalLoop=1;jettySize=auto;html=1;exitX=1;exitY=0.5;exitDx=0;exitDy=0;" edge="1" parent="WIyWlLk6GJQsqaUBKTNV-1" source="PF6JFG3gqLruDpnbIKLe-27">
          <mxGeometry relative="1" as="geometry">
            <mxPoint x="444.0114942528736" y="125.09195402298855" as="targetPoint" />
          </mxGeometry>
        </mxCell>
        <mxCell id="PF6JFG3gqLruDpnbIKLe-50" style="edgeStyle=orthogonalEdgeStyle;rounded=0;orthogonalLoop=1;jettySize=auto;html=1;exitX=0;exitY=1;exitDx=0;exitDy=0;entryX=0.5;entryY=0;entryDx=0;entryDy=0;" edge="1" parent="WIyWlLk6GJQsqaUBKTNV-1" source="PF6JFG3gqLruDpnbIKLe-27" target="PF6JFG3gqLruDpnbIKLe-45">
          <mxGeometry relative="1" as="geometry" />
        </mxCell>
        <mxCell id="PF6JFG3gqLruDpnbIKLe-52" style="edgeStyle=orthogonalEdgeStyle;rounded=0;orthogonalLoop=1;jettySize=auto;html=1;exitX=1;exitY=1;exitDx=0;exitDy=0;entryX=0.5;entryY=0;entryDx=0;entryDy=0;" edge="1" parent="WIyWlLk6GJQsqaUBKTNV-1" source="PF6JFG3gqLruDpnbIKLe-27" target="PF6JFG3gqLruDpnbIKLe-47">
          <mxGeometry relative="1" as="geometry" />
        </mxCell>
        <mxCell id="PF6JFG3gqLruDpnbIKLe-57" style="edgeStyle=orthogonalEdgeStyle;rounded=0;orthogonalLoop=1;jettySize=auto;html=1;exitX=1;exitY=0;exitDx=0;exitDy=0;entryX=0.5;entryY=0;entryDx=0;entryDy=0;" edge="1" parent="WIyWlLk6GJQsqaUBKTNV-1" source="PF6JFG3gqLruDpnbIKLe-27" target="PF6JFG3gqLruDpnbIKLe-53">
          <mxGeometry relative="1" as="geometry" />
        </mxCell>
        <mxCell id="PF6JFG3gqLruDpnbIKLe-27" value="" style="rhombus;whiteSpace=wrap;html=1;strokeWidth=2;" vertex="1" parent="WIyWlLk6GJQsqaUBKTNV-1">
          <mxGeometry x="385" y="100" width="59" height="50" as="geometry" />
        </mxCell>
        <mxCell id="PF6JFG3gqLruDpnbIKLe-31" value="&lt;ol style=&quot;font-size: 6px;&quot;&gt;&lt;li&gt;Single&lt;/li&gt;&lt;li&gt;Multi&lt;/li&gt;&lt;li&gt;Auto&lt;/li&gt;&lt;/ol&gt;" style="text;strokeColor=none;fillColor=none;html=1;whiteSpace=wrap;verticalAlign=middle;overflow=hidden;" vertex="1" parent="WIyWlLk6GJQsqaUBKTNV-1">
          <mxGeometry x="369" y="106" width="60" height="32.5" as="geometry" />
        </mxCell>
        <mxCell id="PF6JFG3gqLruDpnbIKLe-118" style="edgeStyle=orthogonalEdgeStyle;rounded=0;orthogonalLoop=1;jettySize=auto;html=1;exitX=0.5;exitY=1;exitDx=0;exitDy=0;entryX=0.5;entryY=0;entryDx=0;entryDy=0;" edge="1" parent="WIyWlLk6GJQsqaUBKTNV-1" source="PF6JFG3gqLruDpnbIKLe-43" target="PF6JFG3gqLruDpnbIKLe-110">
          <mxGeometry relative="1" as="geometry" />
        </mxCell>
        <mxCell id="PF6JFG3gqLruDpnbIKLe-43" value="1. Single" style="whiteSpace=wrap;html=1;strokeWidth=2;" vertex="1" parent="WIyWlLk6GJQsqaUBKTNV-1">
          <mxGeometry x="20" y="138.5" width="55.5" height="20" as="geometry" />
        </mxCell>
        <mxCell id="PF6JFG3gqLruDpnbIKLe-61" value="" style="edgeStyle=orthogonalEdgeStyle;rounded=0;orthogonalLoop=1;jettySize=auto;html=1;" edge="1" parent="WIyWlLk6GJQsqaUBKTNV-1" source="PF6JFG3gqLruDpnbIKLe-45" target="PF6JFG3gqLruDpnbIKLe-60">
          <mxGeometry relative="1" as="geometry" />
        </mxCell>
        <mxCell id="PF6JFG3gqLruDpnbIKLe-45" value="2. Multi" style="whiteSpace=wrap;html=1;strokeWidth=2;" vertex="1" parent="WIyWlLk6GJQsqaUBKTNV-1">
          <mxGeometry x="300" y="170" width="60" height="20" as="geometry" />
        </mxCell>
        <mxCell id="PF6JFG3gqLruDpnbIKLe-47" value="3. Auto" style="whiteSpace=wrap;html=1;strokeWidth=2;" vertex="1" parent="WIyWlLk6GJQsqaUBKTNV-1">
          <mxGeometry x="460" y="170" width="60" height="20" as="geometry" />
        </mxCell>
        <mxCell id="PF6JFG3gqLruDpnbIKLe-59" value="" style="edgeStyle=orthogonalEdgeStyle;rounded=0;orthogonalLoop=1;jettySize=auto;html=1;" edge="1" parent="WIyWlLk6GJQsqaUBKTNV-1" source="PF6JFG3gqLruDpnbIKLe-53" target="PF6JFG3gqLruDpnbIKLe-58">
          <mxGeometry relative="1" as="geometry" />
        </mxCell>
        <mxCell id="PF6JFG3gqLruDpnbIKLe-53" value="Invalid Input" style="whiteSpace=wrap;html=1;strokeWidth=2;" vertex="1" parent="WIyWlLk6GJQsqaUBKTNV-1">
          <mxGeometry x="680" y="138.5" width="80" height="20" as="geometry" />
        </mxCell>
        <mxCell id="PF6JFG3gqLruDpnbIKLe-58" value="End" style="ellipse;whiteSpace=wrap;html=1;strokeWidth=2;" vertex="1" parent="WIyWlLk6GJQsqaUBKTNV-1">
          <mxGeometry x="690" y="183.5" width="60" height="25" as="geometry" />
        </mxCell>
        <mxCell id="PF6JFG3gqLruDpnbIKLe-63" value="" style="edgeStyle=orthogonalEdgeStyle;rounded=0;orthogonalLoop=1;jettySize=auto;html=1;" edge="1" parent="WIyWlLk6GJQsqaUBKTNV-1" source="PF6JFG3gqLruDpnbIKLe-60" target="PF6JFG3gqLruDpnbIKLe-62">
          <mxGeometry relative="1" as="geometry" />
        </mxCell>
        <mxCell id="PF6JFG3gqLruDpnbIKLe-60" value="Welcome to Multiplayer" style="whiteSpace=wrap;html=1;strokeWidth=2;" vertex="1" parent="WIyWlLk6GJQsqaUBKTNV-1">
          <mxGeometry x="265" y="205" width="130" height="20" as="geometry" />
        </mxCell>
        <mxCell id="PF6JFG3gqLruDpnbIKLe-91" value="" style="edgeStyle=orthogonalEdgeStyle;rounded=0;orthogonalLoop=1;jettySize=auto;html=1;" edge="1" parent="WIyWlLk6GJQsqaUBKTNV-1" source="PF6JFG3gqLruDpnbIKLe-62" target="PF6JFG3gqLruDpnbIKLe-90">
          <mxGeometry relative="1" as="geometry" />
        </mxCell>
        <mxCell id="PF6JFG3gqLruDpnbIKLe-62" value="Deals Cards" style="whiteSpace=wrap;html=1;strokeWidth=2;" vertex="1" parent="WIyWlLk6GJQsqaUBKTNV-1">
          <mxGeometry x="287.5" y="240" width="85" height="20" as="geometry" />
        </mxCell>
        <mxCell id="PF6JFG3gqLruDpnbIKLe-79" style="edgeStyle=orthogonalEdgeStyle;rounded=0;orthogonalLoop=1;jettySize=auto;html=1;exitX=1;exitY=0.5;exitDx=0;exitDy=0;entryX=0;entryY=0.5;entryDx=0;entryDy=0;" edge="1" parent="WIyWlLk6GJQsqaUBKTNV-1" source="PF6JFG3gqLruDpnbIKLe-66" target="PF6JFG3gqLruDpnbIKLe-74">
          <mxGeometry relative="1" as="geometry" />
        </mxCell>
        <mxCell id="PF6JFG3gqLruDpnbIKLe-86" style="edgeStyle=orthogonalEdgeStyle;rounded=0;orthogonalLoop=1;jettySize=auto;html=1;exitX=0;exitY=0.5;exitDx=0;exitDy=0;entryX=1;entryY=0.5;entryDx=0;entryDy=0;" edge="1" parent="WIyWlLk6GJQsqaUBKTNV-1" source="PF6JFG3gqLruDpnbIKLe-66" target="PF6JFG3gqLruDpnbIKLe-84">
          <mxGeometry relative="1" as="geometry" />
        </mxCell>
        <mxCell id="PF6JFG3gqLruDpnbIKLe-88" value="" style="edgeStyle=orthogonalEdgeStyle;rounded=0;orthogonalLoop=1;jettySize=auto;html=1;" edge="1" parent="WIyWlLk6GJQsqaUBKTNV-1" source="PF6JFG3gqLruDpnbIKLe-66" target="PF6JFG3gqLruDpnbIKLe-87">
          <mxGeometry relative="1" as="geometry" />
        </mxCell>
        <mxCell id="PF6JFG3gqLruDpnbIKLe-66" value="" style="rhombus;whiteSpace=wrap;html=1;strokeWidth=2;" vertex="1" parent="WIyWlLk6GJQsqaUBKTNV-1">
          <mxGeometry x="298" y="317.03000000000003" width="60" height="50" as="geometry" />
        </mxCell>
        <mxCell id="PF6JFG3gqLruDpnbIKLe-68" value="&lt;ol style=&quot;font-size: 7px;&quot;&gt;&lt;li&gt;Hit&lt;/li&gt;&lt;li&gt;Stand&lt;/li&gt;&lt;/ol&gt;" style="text;strokeColor=none;fillColor=none;html=1;whiteSpace=wrap;verticalAlign=middle;overflow=hidden;" vertex="1" parent="WIyWlLk6GJQsqaUBKTNV-1">
          <mxGeometry x="280" y="321.03000000000003" width="65" height="27" as="geometry" />
        </mxCell>
        <mxCell id="PF6JFG3gqLruDpnbIKLe-80" style="edgeStyle=orthogonalEdgeStyle;rounded=0;orthogonalLoop=1;jettySize=auto;html=1;exitX=0.5;exitY=0;exitDx=0;exitDy=0;entryX=1;entryY=0;entryDx=0;entryDy=0;" edge="1" parent="WIyWlLk6GJQsqaUBKTNV-1" source="PF6JFG3gqLruDpnbIKLe-74" target="PF6JFG3gqLruDpnbIKLe-66">
          <mxGeometry relative="1" as="geometry">
            <Array as="points">
              <mxPoint x="392" y="310.03000000000003" />
              <mxPoint x="343" y="310.03000000000003" />
            </Array>
          </mxGeometry>
        </mxCell>
        <mxCell id="PF6JFG3gqLruDpnbIKLe-74" value="Hit" style="whiteSpace=wrap;html=1;strokeWidth=2;" vertex="1" parent="WIyWlLk6GJQsqaUBKTNV-1">
          <mxGeometry x="377" y="329.53000000000003" width="30" height="25" as="geometry" />
        </mxCell>
        <mxCell id="PF6JFG3gqLruDpnbIKLe-83" value="" style="edgeStyle=orthogonalEdgeStyle;rounded=0;orthogonalLoop=1;jettySize=auto;html=1;" edge="1" parent="WIyWlLk6GJQsqaUBKTNV-1" source="PF6JFG3gqLruDpnbIKLe-84" target="PF6JFG3gqLruDpnbIKLe-85">
          <mxGeometry relative="1" as="geometry" />
        </mxCell>
        <mxCell id="PF6JFG3gqLruDpnbIKLe-84" value="Invalid Input" style="whiteSpace=wrap;html=1;strokeWidth=2;" vertex="1" parent="WIyWlLk6GJQsqaUBKTNV-1">
          <mxGeometry x="200" y="332.03000000000003" width="80" height="20" as="geometry" />
        </mxCell>
        <mxCell id="PF6JFG3gqLruDpnbIKLe-85" value="End" style="ellipse;whiteSpace=wrap;html=1;strokeWidth=2;" vertex="1" parent="WIyWlLk6GJQsqaUBKTNV-1">
          <mxGeometry x="210" y="374.53000000000003" width="60" height="25" as="geometry" />
        </mxCell>
        <mxCell id="PF6JFG3gqLruDpnbIKLe-94" value="" style="edgeStyle=orthogonalEdgeStyle;rounded=0;orthogonalLoop=1;jettySize=auto;html=1;" edge="1" parent="WIyWlLk6GJQsqaUBKTNV-1" source="PF6JFG3gqLruDpnbIKLe-87" target="PF6JFG3gqLruDpnbIKLe-93">
          <mxGeometry relative="1" as="geometry" />
        </mxCell>
        <mxCell id="PF6JFG3gqLruDpnbIKLe-87" value="Stand" style="whiteSpace=wrap;html=1;strokeWidth=2;" vertex="1" parent="WIyWlLk6GJQsqaUBKTNV-1">
          <mxGeometry x="303" y="387.03000000000003" width="50" height="25" as="geometry" />
        </mxCell>
        <mxCell id="PF6JFG3gqLruDpnbIKLe-92" style="edgeStyle=orthogonalEdgeStyle;rounded=0;orthogonalLoop=1;jettySize=auto;html=1;exitX=0.5;exitY=1;exitDx=0;exitDy=0;entryX=0.5;entryY=0;entryDx=0;entryDy=0;" edge="1" parent="WIyWlLk6GJQsqaUBKTNV-1" source="PF6JFG3gqLruDpnbIKLe-90" target="PF6JFG3gqLruDpnbIKLe-66">
          <mxGeometry relative="1" as="geometry" />
        </mxCell>
        <mxCell id="PF6JFG3gqLruDpnbIKLe-90" value="Player 1 turn" style="whiteSpace=wrap;html=1;strokeWidth=2;" vertex="1" parent="WIyWlLk6GJQsqaUBKTNV-1">
          <mxGeometry x="290" y="280" width="80" height="20" as="geometry" />
        </mxCell>
        <mxCell id="PF6JFG3gqLruDpnbIKLe-106" style="edgeStyle=orthogonalEdgeStyle;rounded=0;orthogonalLoop=1;jettySize=auto;html=1;exitX=0.5;exitY=1;exitDx=0;exitDy=0;entryX=0.5;entryY=0;entryDx=0;entryDy=0;" edge="1" parent="WIyWlLk6GJQsqaUBKTNV-1" source="PF6JFG3gqLruDpnbIKLe-93" target="PF6JFG3gqLruDpnbIKLe-98">
          <mxGeometry relative="1" as="geometry" />
        </mxCell>
        <mxCell id="PF6JFG3gqLruDpnbIKLe-93" value="Player 2 turn" style="whiteSpace=wrap;html=1;strokeWidth=2;" vertex="1" parent="WIyWlLk6GJQsqaUBKTNV-1">
          <mxGeometry x="289.5" y="430" width="77" height="25" as="geometry" />
        </mxCell>
        <mxCell id="PF6JFG3gqLruDpnbIKLe-95" style="edgeStyle=orthogonalEdgeStyle;rounded=0;orthogonalLoop=1;jettySize=auto;html=1;exitX=1;exitY=0.5;exitDx=0;exitDy=0;entryX=0;entryY=0.5;entryDx=0;entryDy=0;" edge="1" parent="WIyWlLk6GJQsqaUBKTNV-1" source="PF6JFG3gqLruDpnbIKLe-98" target="PF6JFG3gqLruDpnbIKLe-101">
          <mxGeometry relative="1" as="geometry" />
        </mxCell>
        <mxCell id="PF6JFG3gqLruDpnbIKLe-96" style="edgeStyle=orthogonalEdgeStyle;rounded=0;orthogonalLoop=1;jettySize=auto;html=1;exitX=0;exitY=0.5;exitDx=0;exitDy=0;entryX=1;entryY=0.5;entryDx=0;entryDy=0;" edge="1" parent="WIyWlLk6GJQsqaUBKTNV-1" source="PF6JFG3gqLruDpnbIKLe-98" target="PF6JFG3gqLruDpnbIKLe-103">
          <mxGeometry relative="1" as="geometry" />
        </mxCell>
        <mxCell id="PF6JFG3gqLruDpnbIKLe-97" value="" style="edgeStyle=orthogonalEdgeStyle;rounded=0;orthogonalLoop=1;jettySize=auto;html=1;" edge="1" parent="WIyWlLk6GJQsqaUBKTNV-1" source="PF6JFG3gqLruDpnbIKLe-98" target="PF6JFG3gqLruDpnbIKLe-105">
          <mxGeometry relative="1" as="geometry" />
        </mxCell>
        <mxCell id="PF6JFG3gqLruDpnbIKLe-98" value="" style="rhombus;whiteSpace=wrap;html=1;strokeWidth=2;" vertex="1" parent="WIyWlLk6GJQsqaUBKTNV-1">
          <mxGeometry x="298" y="489.03000000000003" width="60" height="50" as="geometry" />
        </mxCell>
        <mxCell id="PF6JFG3gqLruDpnbIKLe-99" value="&lt;ol style=&quot;font-size: 7px;&quot;&gt;&lt;li&gt;Hit&lt;/li&gt;&lt;li&gt;Stand&lt;/li&gt;&lt;/ol&gt;" style="text;strokeColor=none;fillColor=none;html=1;whiteSpace=wrap;verticalAlign=middle;overflow=hidden;" vertex="1" parent="WIyWlLk6GJQsqaUBKTNV-1">
          <mxGeometry x="280" y="493.03000000000003" width="65" height="27" as="geometry" />
        </mxCell>
        <mxCell id="PF6JFG3gqLruDpnbIKLe-100" style="edgeStyle=orthogonalEdgeStyle;rounded=0;orthogonalLoop=1;jettySize=auto;html=1;exitX=0.5;exitY=0;exitDx=0;exitDy=0;entryX=1;entryY=0;entryDx=0;entryDy=0;" edge="1" parent="WIyWlLk6GJQsqaUBKTNV-1" source="PF6JFG3gqLruDpnbIKLe-101" target="PF6JFG3gqLruDpnbIKLe-98">
          <mxGeometry relative="1" as="geometry">
            <Array as="points">
              <mxPoint x="392" y="482.03000000000003" />
              <mxPoint x="343" y="482.03000000000003" />
            </Array>
          </mxGeometry>
        </mxCell>
        <mxCell id="PF6JFG3gqLruDpnbIKLe-101" value="Hit" style="whiteSpace=wrap;html=1;strokeWidth=2;" vertex="1" parent="WIyWlLk6GJQsqaUBKTNV-1">
          <mxGeometry x="377" y="501.53000000000003" width="30" height="25" as="geometry" />
        </mxCell>
        <mxCell id="PF6JFG3gqLruDpnbIKLe-102" value="" style="edgeStyle=orthogonalEdgeStyle;rounded=0;orthogonalLoop=1;jettySize=auto;html=1;" edge="1" parent="WIyWlLk6GJQsqaUBKTNV-1" source="PF6JFG3gqLruDpnbIKLe-103" target="PF6JFG3gqLruDpnbIKLe-104">
          <mxGeometry relative="1" as="geometry" />
        </mxCell>
        <mxCell id="PF6JFG3gqLruDpnbIKLe-103" value="Invalid Input" style="whiteSpace=wrap;html=1;strokeWidth=2;" vertex="1" parent="WIyWlLk6GJQsqaUBKTNV-1">
          <mxGeometry x="200" y="504.03000000000003" width="80" height="20" as="geometry" />
        </mxCell>
        <mxCell id="PF6JFG3gqLruDpnbIKLe-104" value="End" style="ellipse;whiteSpace=wrap;html=1;strokeWidth=2;" vertex="1" parent="WIyWlLk6GJQsqaUBKTNV-1">
          <mxGeometry x="210" y="546.53" width="60" height="25" as="geometry" />
        </mxCell>
        <mxCell id="PF6JFG3gqLruDpnbIKLe-122" style="edgeStyle=orthogonalEdgeStyle;rounded=0;orthogonalLoop=1;jettySize=auto;html=1;exitX=0.5;exitY=1;exitDx=0;exitDy=0;entryX=0.5;entryY=0;entryDx=0;entryDy=0;" edge="1" parent="WIyWlLk6GJQsqaUBKTNV-1" source="PF6JFG3gqLruDpnbIKLe-105" target="PF6JFG3gqLruDpnbIKLe-121">
          <mxGeometry relative="1" as="geometry" />
        </mxCell>
        <mxCell id="PF6JFG3gqLruDpnbIKLe-105" value="Stand" style="whiteSpace=wrap;html=1;strokeWidth=2;" vertex="1" parent="WIyWlLk6GJQsqaUBKTNV-1">
          <mxGeometry x="303" y="559.03" width="50" height="25" as="geometry" />
        </mxCell>
        <mxCell id="PF6JFG3gqLruDpnbIKLe-107" style="edgeStyle=orthogonalEdgeStyle;rounded=0;orthogonalLoop=1;jettySize=auto;html=1;exitX=1;exitY=0.5;exitDx=0;exitDy=0;entryX=0;entryY=0.5;entryDx=0;entryDy=0;" edge="1" parent="WIyWlLk6GJQsqaUBKTNV-1" source="PF6JFG3gqLruDpnbIKLe-110" target="PF6JFG3gqLruDpnbIKLe-113">
          <mxGeometry relative="1" as="geometry" />
        </mxCell>
        <mxCell id="PF6JFG3gqLruDpnbIKLe-108" style="edgeStyle=orthogonalEdgeStyle;rounded=0;orthogonalLoop=1;jettySize=auto;html=1;exitX=0;exitY=0.5;exitDx=0;exitDy=0;entryX=1;entryY=0.5;entryDx=0;entryDy=0;" edge="1" parent="WIyWlLk6GJQsqaUBKTNV-1" source="PF6JFG3gqLruDpnbIKLe-110" target="PF6JFG3gqLruDpnbIKLe-115">
          <mxGeometry relative="1" as="geometry" />
        </mxCell>
        <mxCell id="PF6JFG3gqLruDpnbIKLe-109" value="" style="edgeStyle=orthogonalEdgeStyle;rounded=0;orthogonalLoop=1;jettySize=auto;html=1;" edge="1" parent="WIyWlLk6GJQsqaUBKTNV-1" source="PF6JFG3gqLruDpnbIKLe-110" target="PF6JFG3gqLruDpnbIKLe-117">
          <mxGeometry relative="1" as="geometry" />
        </mxCell>
        <mxCell id="PF6JFG3gqLruDpnbIKLe-110" value="" style="rhombus;whiteSpace=wrap;html=1;strokeWidth=2;" vertex="1" parent="WIyWlLk6GJQsqaUBKTNV-1">
          <mxGeometry x="18" y="187.03000000000003" width="60" height="50" as="geometry" />
        </mxCell>
        <mxCell id="PF6JFG3gqLruDpnbIKLe-111" value="&lt;ol style=&quot;font-size: 7px;&quot;&gt;&lt;li&gt;Hit&lt;/li&gt;&lt;li&gt;Stand&lt;/li&gt;&lt;/ol&gt;" style="text;strokeColor=none;fillColor=none;html=1;whiteSpace=wrap;verticalAlign=middle;overflow=hidden;" vertex="1" parent="WIyWlLk6GJQsqaUBKTNV-1">
          <mxGeometry y="191.03000000000003" width="65" height="27" as="geometry" />
        </mxCell>
        <mxCell id="PF6JFG3gqLruDpnbIKLe-112" style="edgeStyle=orthogonalEdgeStyle;rounded=0;orthogonalLoop=1;jettySize=auto;html=1;exitX=0.5;exitY=0;exitDx=0;exitDy=0;entryX=1;entryY=0;entryDx=0;entryDy=0;" edge="1" parent="WIyWlLk6GJQsqaUBKTNV-1" source="PF6JFG3gqLruDpnbIKLe-113" target="PF6JFG3gqLruDpnbIKLe-110">
          <mxGeometry relative="1" as="geometry">
            <Array as="points">
              <mxPoint x="112" y="180.03000000000003" />
              <mxPoint x="63" y="180.03000000000003" />
            </Array>
          </mxGeometry>
        </mxCell>
        <mxCell id="PF6JFG3gqLruDpnbIKLe-113" value="Hit" style="whiteSpace=wrap;html=1;strokeWidth=2;" vertex="1" parent="WIyWlLk6GJQsqaUBKTNV-1">
          <mxGeometry x="97" y="199.53000000000003" width="30" height="25" as="geometry" />
        </mxCell>
        <mxCell id="PF6JFG3gqLruDpnbIKLe-114" value="" style="edgeStyle=orthogonalEdgeStyle;rounded=0;orthogonalLoop=1;jettySize=auto;html=1;" edge="1" parent="WIyWlLk6GJQsqaUBKTNV-1" source="PF6JFG3gqLruDpnbIKLe-115" target="PF6JFG3gqLruDpnbIKLe-116">
          <mxGeometry relative="1" as="geometry" />
        </mxCell>
        <mxCell id="PF6JFG3gqLruDpnbIKLe-115" value="Invalid Input" style="whiteSpace=wrap;html=1;strokeWidth=2;" vertex="1" parent="WIyWlLk6GJQsqaUBKTNV-1">
          <mxGeometry x="-80" y="202.03000000000003" width="80" height="20" as="geometry" />
        </mxCell>
        <mxCell id="PF6JFG3gqLruDpnbIKLe-116" value="End" style="ellipse;whiteSpace=wrap;html=1;strokeWidth=2;" vertex="1" parent="WIyWlLk6GJQsqaUBKTNV-1">
          <mxGeometry x="-70" y="244.53000000000003" width="60" height="25" as="geometry" />
        </mxCell>
        <mxCell id="PF6JFG3gqLruDpnbIKLe-120" value="" style="edgeStyle=orthogonalEdgeStyle;rounded=0;orthogonalLoop=1;jettySize=auto;html=1;" edge="1" parent="WIyWlLk6GJQsqaUBKTNV-1" source="PF6JFG3gqLruDpnbIKLe-117" target="PF6JFG3gqLruDpnbIKLe-119">
          <mxGeometry relative="1" as="geometry" />
        </mxCell>
        <mxCell id="PF6JFG3gqLruDpnbIKLe-117" value="Stand" style="whiteSpace=wrap;html=1;strokeWidth=2;" vertex="1" parent="WIyWlLk6GJQsqaUBKTNV-1">
          <mxGeometry x="23" y="257.03000000000003" width="50" height="25" as="geometry" />
        </mxCell>
        <mxCell id="PF6JFG3gqLruDpnbIKLe-124" value="" style="edgeStyle=orthogonalEdgeStyle;rounded=0;orthogonalLoop=1;jettySize=auto;html=1;" edge="1" parent="WIyWlLk6GJQsqaUBKTNV-1" source="PF6JFG3gqLruDpnbIKLe-119" target="PF6JFG3gqLruDpnbIKLe-123">
          <mxGeometry relative="1" as="geometry" />
        </mxCell>
        <mxCell id="PF6JFG3gqLruDpnbIKLe-119" value="Dealer turn" style="whiteSpace=wrap;html=1;strokeWidth=2;" vertex="1" parent="WIyWlLk6GJQsqaUBKTNV-1">
          <mxGeometry x="14.5" y="300" width="67" height="25" as="geometry" />
        </mxCell>
        <mxCell id="PF6JFG3gqLruDpnbIKLe-121" value="Dealer turn" style="whiteSpace=wrap;html=1;strokeWidth=2;" vertex="1" parent="WIyWlLk6GJQsqaUBKTNV-1">
          <mxGeometry x="294.5" y="600" width="67" height="25" as="geometry" />
        </mxCell>
        <mxCell id="PF6JFG3gqLruDpnbIKLe-126" value="" style="edgeStyle=orthogonalEdgeStyle;rounded=0;orthogonalLoop=1;jettySize=auto;html=1;" edge="1" parent="WIyWlLk6GJQsqaUBKTNV-1" source="PF6JFG3gqLruDpnbIKLe-123" target="PF6JFG3gqLruDpnbIKLe-125">
          <mxGeometry relative="1" as="geometry" />
        </mxCell>
        <mxCell id="PF6JFG3gqLruDpnbIKLe-123" value="Determine Winner" style="whiteSpace=wrap;html=1;strokeWidth=2;" vertex="1" parent="WIyWlLk6GJQsqaUBKTNV-1">
          <mxGeometry x="-4.75" y="348.03" width="105.5" height="25" as="geometry" />
        </mxCell>
        <mxCell id="PF6JFG3gqLruDpnbIKLe-128" value="" style="edgeStyle=orthogonalEdgeStyle;rounded=0;orthogonalLoop=1;jettySize=auto;html=1;" edge="1" parent="WIyWlLk6GJQsqaUBKTNV-1" source="PF6JFG3gqLruDpnbIKLe-125" target="PF6JFG3gqLruDpnbIKLe-127">
          <mxGeometry relative="1" as="geometry" />
        </mxCell>
        <mxCell id="PF6JFG3gqLruDpnbIKLe-125" value="Play again?" style="whiteSpace=wrap;html=1;strokeWidth=2;" vertex="1" parent="WIyWlLk6GJQsqaUBKTNV-1">
          <mxGeometry x="-4.75" y="387.03" width="105.5" height="25" as="geometry" />
        </mxCell>
        <mxCell id="PF6JFG3gqLruDpnbIKLe-130" style="edgeStyle=orthogonalEdgeStyle;rounded=0;orthogonalLoop=1;jettySize=auto;html=1;entryX=1;entryY=0.5;entryDx=0;entryDy=0;exitX=1;exitY=0.5;exitDx=0;exitDy=0;" edge="1" parent="WIyWlLk6GJQsqaUBKTNV-1" source="PF6JFG3gqLruDpnbIKLe-131" target="PF6JFG3gqLruDpnbIKLe-43">
          <mxGeometry relative="1" as="geometry">
            <mxPoint x="130" y="458" as="sourcePoint" />
            <Array as="points">
              <mxPoint x="150" y="458" />
              <mxPoint x="150" y="149" />
            </Array>
          </mxGeometry>
        </mxCell>
        <mxCell id="PF6JFG3gqLruDpnbIKLe-132" value="" style="edgeStyle=orthogonalEdgeStyle;rounded=0;orthogonalLoop=1;jettySize=auto;html=1;" edge="1" parent="WIyWlLk6GJQsqaUBKTNV-1" source="PF6JFG3gqLruDpnbIKLe-127" target="PF6JFG3gqLruDpnbIKLe-131">
          <mxGeometry relative="1" as="geometry" />
        </mxCell>
        <mxCell id="PF6JFG3gqLruDpnbIKLe-134" value="" style="edgeStyle=orthogonalEdgeStyle;rounded=0;orthogonalLoop=1;jettySize=auto;html=1;" edge="1" parent="WIyWlLk6GJQsqaUBKTNV-1" source="PF6JFG3gqLruDpnbIKLe-127" target="PF6JFG3gqLruDpnbIKLe-133">
          <mxGeometry relative="1" as="geometry" />
        </mxCell>
        <mxCell id="PF6JFG3gqLruDpnbIKLe-138" style="edgeStyle=orthogonalEdgeStyle;rounded=0;orthogonalLoop=1;jettySize=auto;html=1;exitX=0;exitY=0.5;exitDx=0;exitDy=0;entryX=1;entryY=0.5;entryDx=0;entryDy=0;" edge="1" parent="WIyWlLk6GJQsqaUBKTNV-1" source="PF6JFG3gqLruDpnbIKLe-127" target="PF6JFG3gqLruDpnbIKLe-136">
          <mxGeometry relative="1" as="geometry" />
        </mxCell>
        <mxCell id="PF6JFG3gqLruDpnbIKLe-127" value="" style="rhombus;whiteSpace=wrap;html=1;strokeWidth=2;" vertex="1" parent="WIyWlLk6GJQsqaUBKTNV-1">
          <mxGeometry x="25" y="440" width="48" height="35.47" as="geometry" />
        </mxCell>
        <mxCell id="PF6JFG3gqLruDpnbIKLe-129" value="&lt;ol style=&quot;font-size: 7px;&quot;&gt;&lt;li&gt;Yes&lt;/li&gt;&lt;li&gt;No&lt;/li&gt;&lt;/ol&gt;" style="text;strokeColor=none;fillColor=none;html=1;whiteSpace=wrap;verticalAlign=middle;overflow=hidden;" vertex="1" parent="WIyWlLk6GJQsqaUBKTNV-1">
          <mxGeometry x="7" y="440" width="63" height="32" as="geometry" />
        </mxCell>
        <mxCell id="PF6JFG3gqLruDpnbIKLe-131" value="Yes" style="whiteSpace=wrap;html=1;strokeWidth=2;" vertex="1" parent="WIyWlLk6GJQsqaUBKTNV-1">
          <mxGeometry x="90" y="448.54" width="33" height="18.4" as="geometry" />
        </mxCell>
        <mxCell id="PF6JFG3gqLruDpnbIKLe-144" value="" style="edgeStyle=orthogonalEdgeStyle;rounded=0;orthogonalLoop=1;jettySize=auto;html=1;" edge="1" parent="WIyWlLk6GJQsqaUBKTNV-1" source="PF6JFG3gqLruDpnbIKLe-133" target="PF6JFG3gqLruDpnbIKLe-143">
          <mxGeometry relative="1" as="geometry" />
        </mxCell>
        <mxCell id="PF6JFG3gqLruDpnbIKLe-133" value="No" style="whiteSpace=wrap;html=1;strokeWidth=2;" vertex="1" parent="WIyWlLk6GJQsqaUBKTNV-1">
          <mxGeometry x="34.5" y="489.03000000000003" width="29" height="16.79" as="geometry" />
        </mxCell>
        <mxCell id="PF6JFG3gqLruDpnbIKLe-135" value="" style="edgeStyle=orthogonalEdgeStyle;rounded=0;orthogonalLoop=1;jettySize=auto;html=1;" edge="1" parent="WIyWlLk6GJQsqaUBKTNV-1" source="PF6JFG3gqLruDpnbIKLe-136" target="PF6JFG3gqLruDpnbIKLe-137">
          <mxGeometry relative="1" as="geometry" />
        </mxCell>
        <mxCell id="PF6JFG3gqLruDpnbIKLe-136" value="Invalid Input" style="whiteSpace=wrap;html=1;strokeWidth=2;" vertex="1" parent="WIyWlLk6GJQsqaUBKTNV-1">
          <mxGeometry x="-80" y="448.54" width="80" height="20" as="geometry" />
        </mxCell>
        <mxCell id="PF6JFG3gqLruDpnbIKLe-137" value="End" style="ellipse;whiteSpace=wrap;html=1;strokeWidth=2;" vertex="1" parent="WIyWlLk6GJQsqaUBKTNV-1">
          <mxGeometry x="-70" y="489.03000000000003" width="60" height="25" as="geometry" />
        </mxCell>
        <mxCell id="PF6JFG3gqLruDpnbIKLe-139" value="End" style="ellipse;whiteSpace=wrap;html=1;strokeWidth=2;" vertex="1" parent="WIyWlLk6GJQsqaUBKTNV-1">
          <mxGeometry x="18" y="559.03" width="60" height="25" as="geometry" />
        </mxCell>
        <mxCell id="PF6JFG3gqLruDpnbIKLe-145" style="edgeStyle=orthogonalEdgeStyle;rounded=0;orthogonalLoop=1;jettySize=auto;html=1;exitX=0.5;exitY=1;exitDx=0;exitDy=0;entryX=0.5;entryY=0;entryDx=0;entryDy=0;" edge="1" parent="WIyWlLk6GJQsqaUBKTNV-1" source="PF6JFG3gqLruDpnbIKLe-143" target="PF6JFG3gqLruDpnbIKLe-139">
          <mxGeometry relative="1" as="geometry" />
        </mxCell>
        <mxCell id="PF6JFG3gqLruDpnbIKLe-143" value="Thanks for playing" style="whiteSpace=wrap;html=1;strokeWidth=2;" vertex="1" parent="WIyWlLk6GJQsqaUBKTNV-1">
          <mxGeometry x="-3.75" y="526.5300000000001" width="105.5" height="16.79" as="geometry" />
        </mxCell>
      </root>
    </mxGraphModel>
  </diagram>
</mxfile>
